<mxfile host="app.diagrams.net" modified="2021-01-06T03:56:14.606Z" agent="5.0 (Macintosh; Intel Mac OS X 11_1_0) AppleWebKit/537.36 (KHTML, like Gecko) Chrome/87.0.4280.67 Safari/537.36" etag="DAvVkavoJ8mbTjZ34_ea" version="14.1.8" type="github">
  <diagram id="GqKOqFa_LnSLoMzZh2zW" name="Page-1">
    <mxGraphModel dx="2066" dy="1129" grid="1" gridSize="10" guides="1" tooltips="1" connect="1" arrows="1" fold="1" page="1" pageScale="1" pageWidth="850" pageHeight="1100" math="0" shadow="0">
      <root>
        <mxCell id="0" />
        <mxCell id="1" parent="0" />
        <mxCell id="sLybfmZlKdAoe-mEPf5w-3" style="edgeStyle=orthogonalEdgeStyle;rounded=0;orthogonalLoop=1;jettySize=auto;html=1;entryX=0.5;entryY=0;entryDx=0;entryDy=0;" edge="1" parent="1" source="sLybfmZlKdAoe-mEPf5w-1" target="sLybfmZlKdAoe-mEPf5w-2">
          <mxGeometry relative="1" as="geometry" />
        </mxCell>
        <mxCell id="sLybfmZlKdAoe-mEPf5w-1" value="添加回款计划" style="rounded=1;whiteSpace=wrap;html=1;" vertex="1" parent="1">
          <mxGeometry x="365" y="100" width="120" height="60" as="geometry" />
        </mxCell>
        <mxCell id="sLybfmZlKdAoe-mEPf5w-5" style="edgeStyle=orthogonalEdgeStyle;rounded=0;orthogonalLoop=1;jettySize=auto;html=1;entryX=0.5;entryY=0;entryDx=0;entryDy=0;" edge="1" parent="1" source="sLybfmZlKdAoe-mEPf5w-2" target="sLybfmZlKdAoe-mEPf5w-7">
          <mxGeometry relative="1" as="geometry">
            <mxPoint x="425" y="360" as="targetPoint" />
          </mxGeometry>
        </mxCell>
        <mxCell id="sLybfmZlKdAoe-mEPf5w-2" value="创建定时任务，发送到期提醒" style="rounded=0;whiteSpace=wrap;html=1;" vertex="1" parent="1">
          <mxGeometry x="365" y="220" width="120" height="60" as="geometry" />
        </mxCell>
        <mxCell id="sLybfmZlKdAoe-mEPf5w-15" style="edgeStyle=orthogonalEdgeStyle;rounded=0;orthogonalLoop=1;jettySize=auto;html=1;" edge="1" parent="1" source="sLybfmZlKdAoe-mEPf5w-6" target="sLybfmZlKdAoe-mEPf5w-14">
          <mxGeometry relative="1" as="geometry" />
        </mxCell>
        <mxCell id="sLybfmZlKdAoe-mEPf5w-6" value="清除定时任务" style="rounded=0;whiteSpace=wrap;html=1;" vertex="1" parent="1">
          <mxGeometry x="365" y="530" width="120" height="60" as="geometry" />
        </mxCell>
        <mxCell id="sLybfmZlKdAoe-mEPf5w-8" value="是" style="edgeStyle=orthogonalEdgeStyle;rounded=0;orthogonalLoop=1;jettySize=auto;html=1;entryX=0.5;entryY=0;entryDx=0;entryDy=0;" edge="1" parent="1" source="sLybfmZlKdAoe-mEPf5w-7" target="sLybfmZlKdAoe-mEPf5w-6">
          <mxGeometry relative="1" as="geometry" />
        </mxCell>
        <mxCell id="sLybfmZlKdAoe-mEPf5w-12" style="edgeStyle=orthogonalEdgeStyle;rounded=0;orthogonalLoop=1;jettySize=auto;html=1;entryX=1;entryY=0.5;entryDx=0;entryDy=0;" edge="1" parent="1" source="sLybfmZlKdAoe-mEPf5w-7" target="sLybfmZlKdAoe-mEPf5w-9">
          <mxGeometry relative="1" as="geometry" />
        </mxCell>
        <mxCell id="sLybfmZlKdAoe-mEPf5w-13" value="否" style="edgeLabel;html=1;align=center;verticalAlign=middle;resizable=0;points=[];" vertex="1" connectable="0" parent="sLybfmZlKdAoe-mEPf5w-12">
          <mxGeometry x="-0.28" y="1" relative="1" as="geometry">
            <mxPoint as="offset" />
          </mxGeometry>
        </mxCell>
        <mxCell id="sLybfmZlKdAoe-mEPf5w-7" value="是否按期回款" style="rhombus;whiteSpace=wrap;html=1;" vertex="1" parent="1">
          <mxGeometry x="385" y="370" width="80" height="80" as="geometry" />
        </mxCell>
        <mxCell id="sLybfmZlKdAoe-mEPf5w-9" value="定时任务会发送到期提醒" style="rounded=0;whiteSpace=wrap;html=1;" vertex="1" parent="1">
          <mxGeometry x="140" y="380" width="120" height="60" as="geometry" />
        </mxCell>
        <mxCell id="sLybfmZlKdAoe-mEPf5w-19" style="edgeStyle=orthogonalEdgeStyle;rounded=0;orthogonalLoop=1;jettySize=auto;html=1;" edge="1" parent="1" source="sLybfmZlKdAoe-mEPf5w-14" target="sLybfmZlKdAoe-mEPf5w-17">
          <mxGeometry relative="1" as="geometry" />
        </mxCell>
        <mxCell id="sLybfmZlKdAoe-mEPf5w-14" value="创建回款单" style="rounded=0;whiteSpace=wrap;html=1;" vertex="1" parent="1">
          <mxGeometry x="365" y="670" width="120" height="60" as="geometry" />
        </mxCell>
        <mxCell id="sLybfmZlKdAoe-mEPf5w-17" value="订单状态转完成" style="rounded=1;whiteSpace=wrap;html=1;" vertex="1" parent="1">
          <mxGeometry x="365" y="810" width="120" height="60" as="geometry" />
        </mxCell>
        <mxCell id="sLybfmZlKdAoe-mEPf5w-20" value="" style="rounded=1;whiteSpace=wrap;html=1;" vertex="1" parent="1">
          <mxGeometry x="370" y="1000" width="120" height="60" as="geometry" />
        </mxCell>
        <mxCell id="sLybfmZlKdAoe-mEPf5w-21" value="添加回款计划流程" style="rounded=0;whiteSpace=wrap;html=1;" vertex="1" parent="1">
          <mxGeometry x="140" y="40" width="580" height="40" as="geometry" />
        </mxCell>
      </root>
    </mxGraphModel>
  </diagram>
</mxfile>
